<?xml version="1.0" standalone="no"?>
<!DOCTYPE svg PUBLIC "-//W3C//DTD SVG 20010904//EN"
 "http://www.w3.org/TR/2001/REC-SVG-20010904/DTD/svg10.dtd">
<svg version="1.0" xmlns="http://www.w3.org/2000/svg"
 width="528.000000pt" height="472.000000pt" viewBox="0 0 528.000000 472.000000"
 preserveAspectRatio="xMidYMid meet">

<g transform="translate(0.000000,472.000000) scale(0.100000,-0.100000)"
fill="#000000" stroke="none">
<path d="M2408 4493 c-16 -8 -28 -18 -28 -24 0 -5 -9 -9 -20 -9 -11 0 -20 -4
-20 -10 0 -5 -9 -10 -19 -10 -10 0 -21 -7 -25 -15 -3 -8 -15 -15 -26 -15 -11
0 -20 -4 -20 -10 0 -5 -7 -10 -15 -10 -8 0 -15 -4 -15 -10 0 -5 -9 -10 -20
-10 -11 0 -20 -4 -20 -10 0 -5 -11 -12 -25 -16 -14 -3 -25 -10 -25 -15 0 -5
-9 -9 -20 -9 -11 0 -20 -4 -20 -10 0 -5 -7 -10 -15 -10 -8 0 -15 -4 -15 -10 0
-5 -11 -12 -25 -16 -14 -3 -25 -10 -25 -15 0 -5 -8 -9 -18 -9 -10 0 -24 -9
-32 -20 -8 -11 -20 -20 -27 -20 -7 0 -13 -4 -13 -9 0 -5 -12 -11 -27 -14 -16
-3 -37 -14 -48 -24 -21 -19 -53 -37 -97 -53 -16 -5 -28 -14 -28 -19 0 -10 -30
-25 -97 -51 -18 -7 -33 -16 -33 -21 0 -5 -6 -9 -14 -9 -8 0 -16 -3 -18 -7 -1
-5 -21 -17 -43 -28 -22 -11 -42 -22 -45 -25 -4 -4 -38 -24 -95 -54 -11 -6 -22
-13 -25 -17 -3 -3 -22 -13 -42 -22 -21 -10 -38 -22 -38 -27 0 -6 -8 -10 -17
-10 -10 0 -29 -9 -43 -20 -14 -11 -31 -20 -37 -20 -7 0 -13 -4 -13 -10 0 -5
-11 -12 -25 -16 -14 -3 -25 -10 -25 -15 0 -5 -9 -9 -19 -9 -11 0 -22 -9 -26
-19 -3 -12 -19 -21 -40 -25 -19 -4 -35 -11 -35 -16 0 -6 -8 -10 -18 -10 -10 0
-24 -9 -32 -20 -8 -11 -29 -23 -47 -26 -18 -3 -33 -10 -33 -15 0 -5 -5 -9 -11
-9 -7 0 -19 -8 -28 -19 -9 -10 -30 -21 -47 -25 -16 -4 -36 -16 -44 -26 -8 -11
-20 -20 -27 -20 -7 0 -13 -5 -13 -11 0 -6 -6 -9 -14 -6 -7 3 -19 -2 -27 -11
-12 -14 -14 -135 -12 -747 3 -1499 1 -1375 22 -1375 10 0 24 -6 30 -14 7 -8
26 -22 44 -30 18 -9 50 -28 72 -42 22 -13 47 -27 55 -31 8 -4 17 -9 20 -12 3
-3 25 -16 50 -29 25 -12 59 -29 75 -39 32 -17 52 -28 98 -51 15 -7 27 -18 27
-23 0 -5 8 -9 18 -9 10 0 33 -13 52 -30 19 -16 41 -29 48 -30 6 0 12 -4 12 -9
0 -5 15 -13 32 -17 18 -3 40 -15 49 -25 9 -11 21 -19 28 -19 6 0 11 -4 11 -9
0 -5 15 -12 33 -15 18 -3 39 -15 47 -26 8 -11 20 -20 27 -20 7 0 13 -4 13 -10
0 -5 9 -10 19 -10 11 0 26 -7 35 -15 8 -8 19 -15 25 -15 6 0 11 -4 11 -10 0
-5 9 -10 20 -10 11 0 20 -4 20 -9 0 -5 11 -12 25 -15 14 -4 25 -11 25 -16 0
-6 9 -10 20 -10 11 0 20 -4 20 -10 0 -5 7 -10 15 -10 8 0 15 -4 15 -10 0 -5 9
-10 20 -10 11 0 20 -4 20 -9 0 -5 12 -16 28 -24 33 -17 117 -64 157 -89 17
-10 41 -22 55 -28 44 -18 69 -33 89 -52 11 -10 23 -18 27 -18 15 0 80 -36 95
-52 9 -10 21 -18 28 -18 16 0 70 -30 115 -65 29 -22 49 -29 80 -29 22 1 42 7
44 13 2 6 10 11 18 11 8 0 14 5 14 10 0 6 9 10 19 10 11 0 22 9 26 19 3 11 19
21 38 25 18 3 39 15 47 26 8 11 22 20 32 20 10 0 18 4 18 9 0 5 15 13 32 17
18 3 40 15 49 25 9 11 21 19 28 19 6 0 11 4 11 9 0 5 15 12 33 15 18 3 39 15
47 26 7 10 17 17 22 14 4 -3 8 0 8 5 0 6 9 11 19 11 11 0 23 5 26 10 4 6 10 8
14 6 4 -3 14 4 21 15 8 10 22 19 32 19 10 0 18 4 18 9 0 5 11 12 25 15 14 4
25 11 25 16 0 6 9 10 20 10 11 0 20 5 20 10 0 6 7 10 15 10 8 0 15 5 15 10 0
6 9 10 19 10 10 0 21 7 25 15 3 8 15 15 26 15 11 0 20 5 20 10 0 6 7 10 15 10
8 0 15 5 15 10 0 6 9 10 20 10 11 0 20 4 20 10 0 5 11 12 25 16 14 3 25 10 25
15 0 5 9 9 20 9 11 0 20 5 20 10 0 6 7 10 15 10 8 0 15 4 15 9 0 5 10 13 23
16 12 4 38 19 57 35 19 15 46 31 60 35 14 4 41 19 60 34 36 28 98 60 115 61 6
0 17 9 25 20 8 11 20 20 27 20 7 0 13 4 13 9 0 5 14 11 32 15 17 3 39 13 47
20 9 8 36 25 61 38 25 14 70 39 100 57 30 18 63 35 73 38 9 3 17 9 17 14 0 5
7 9 15 9 8 0 15 4 15 9 0 5 10 11 23 13 l22 3 3 1063 c2 1005 1 1063 -15 1069
-10 4 -34 19 -53 34 -19 15 -46 30 -59 34 -14 4 -34 16 -45 26 -11 11 -26 19
-33 19 -7 0 -13 4 -13 10 0 5 -16 12 -35 16 -21 4 -37 13 -40 25 -4 10 -15 19
-26 19 -10 0 -19 4 -19 9 0 5 -11 12 -25 15 -14 4 -25 11 -25 16 0 6 -9 10
-20 10 -11 0 -20 5 -20 10 0 6 -7 10 -15 10 -8 0 -15 5 -15 10 0 6 -9 10 -20
10 -11 0 -23 7 -26 15 -4 8 -15 15 -25 15 -10 0 -19 5 -19 10 0 6 -9 10 -20
10 -11 0 -20 4 -20 9 0 5 -11 12 -25 15 -14 4 -25 11 -25 16 0 6 -7 10 -15 10
-8 0 -15 3 -15 8 0 4 -10 12 -23 18 -64 32 -124 68 -143 85 -11 10 -25 19 -32
19 -18 0 -92 41 -92 51 0 5 -5 9 -11 9 -18 0 -82 32 -112 57 -16 13 -36 23
-45 23 -10 0 -33 13 -52 29 -19 15 -46 32 -60 36 -14 4 -41 21 -60 36 -19 16
-40 29 -47 29 -7 0 -13 4 -13 9 0 5 -11 12 -25 15 -14 4 -25 11 -25 16 0 6 -9
10 -20 10 -11 0 -20 5 -20 10 0 6 -7 10 -15 10 -8 0 -15 5 -15 10 0 6 -9 10
-20 10 -11 0 -23 7 -26 15 -4 8 -15 15 -25 15 -10 0 -19 5 -19 10 0 6 -9 10
-20 10 -11 0 -20 4 -20 9 0 5 -11 12 -25 15 -14 4 -25 11 -25 16 0 6 -7 10
-15 10 -8 0 -15 5 -15 10 0 6 -9 10 -20 10 -11 0 -20 4 -20 10 0 5 -11 12 -25
16 -14 3 -25 10 -25 15 0 14 -51 9 -82 -8z m79 -168 c17 -9 33 -22 36 -29 3
-8 19 -17 36 -21 17 -4 31 -11 31 -16 0 -5 8 -9 18 -9 10 0 24 -9 32 -20 8
-11 20 -20 27 -20 7 0 13 -4 13 -9 0 -5 14 -11 32 -15 17 -3 39 -13 49 -22 21
-19 89 -54 106 -54 7 0 13 -4 13 -9 0 -5 17 -18 38 -29 100 -53 122 -66 122
-74 0 -4 9 -8 19 -8 11 0 26 -7 35 -15 8 -8 19 -15 25 -15 6 0 11 -4 11 -10 0
-5 9 -10 20 -10 11 0 20 -4 20 -9 0 -5 11 -12 25 -15 14 -4 25 -11 25 -16 0
-6 7 -10 15 -10 8 0 15 -4 15 -10 0 -5 8 -10 18 -10 10 0 24 -9 32 -20 8 -11
29 -23 47 -26 18 -3 33 -10 33 -15 0 -5 5 -9 11 -9 7 0 19 -8 28 -19 9 -10 31
-22 49 -25 17 -4 32 -12 32 -17 0 -5 9 -9 19 -9 11 0 23 -9 26 -20 3 -11 13
-20 22 -20 17 0 68 -27 98 -51 11 -9 31 -20 45 -24 14 -4 41 -21 60 -36 19
-16 42 -29 50 -29 9 0 32 -11 51 -25 19 -15 54 -36 79 -48 25 -12 47 -24 50
-27 7 -7 50 -31 93 -52 l37 -18 0 -957 0 -956 -22 -18 c-11 -11 -29 -19 -39
-19 -10 0 -21 -9 -24 -20 -3 -11 -15 -20 -26 -20 -10 0 -19 -4 -19 -10 0 -5
-7 -10 -15 -10 -8 0 -15 -4 -15 -10 0 -5 -9 -10 -19 -10 -11 0 -26 -7 -35 -15
-8 -8 -19 -15 -25 -15 -6 0 -11 -4 -11 -10 0 -5 -9 -10 -20 -10 -11 0 -20 -4
-20 -9 0 -5 -11 -12 -25 -15 -14 -4 -25 -11 -25 -16 0 -6 -7 -10 -15 -10 -8 0
-15 -4 -15 -10 0 -5 -9 -10 -20 -10 -11 0 -20 -4 -20 -10 0 -5 -9 -10 -20 -10
-11 0 -23 -7 -26 -15 -4 -8 -15 -15 -25 -15 -10 0 -19 -4 -19 -9 0 -4 -21 -19
-47 -33 -27 -14 -65 -35 -86 -46 -21 -12 -44 -22 -52 -22 -8 0 -15 -4 -15 -10
0 -5 -9 -10 -20 -10 -11 0 -20 -4 -20 -10 0 -5 -6 -10 -13 -10 -7 0 -19 -9
-27 -20 -8 -10 -28 -22 -44 -26 -17 -4 -38 -15 -47 -25 -9 -11 -21 -19 -28
-19 -6 0 -11 -4 -11 -9 0 -5 -12 -11 -27 -14 -16 -3 -43 -19 -62 -36 -19 -16
-50 -32 -68 -36 -19 -3 -36 -12 -39 -20 -6 -15 -77 -55 -97 -55 -7 0 -19 -9
-27 -20 -8 -11 -20 -20 -27 -20 -7 0 -13 -4 -13 -10 0 -5 -9 -10 -19 -10 -10
0 -21 -7 -25 -15 -3 -8 -15 -15 -26 -15 -11 0 -20 -4 -20 -10 0 -5 -7 -10 -15
-10 -8 0 -15 -4 -15 -10 0 -5 -9 -10 -20 -10 -11 0 -20 -4 -20 -10 0 -5 -11
-12 -25 -16 -14 -3 -25 -10 -25 -15 0 -5 -9 -9 -20 -9 -11 0 -20 -4 -20 -10 0
-5 -7 -10 -15 -10 -8 0 -15 -4 -15 -10 0 -5 -12 -13 -27 -16 -16 -4 -30 -10
-33 -13 -10 -12 -50 -31 -65 -31 -14 0 -53 18 -65 30 -3 3 -24 14 -47 25 -24
11 -43 23 -43 28 0 4 -7 7 -15 7 -8 0 -15 5 -15 10 0 6 -9 10 -20 10 -11 0
-23 7 -26 15 -4 8 -15 15 -25 15 -10 0 -19 5 -19 10 0 6 -5 10 -11 10 -6 0
-17 7 -25 15 -9 8 -24 15 -35 15 -10 0 -19 5 -19 10 0 6 -7 10 -15 10 -8 0
-15 5 -15 10 0 6 -9 10 -19 10 -11 0 -22 9 -26 19 -4 13 -19 22 -45 26 -22 4
-40 11 -40 16 0 5 -6 9 -13 9 -7 0 -19 9 -27 20 -8 11 -29 23 -47 26 -18 3
-33 10 -33 15 0 5 -6 9 -13 9 -7 0 -19 9 -27 20 -8 11 -22 20 -31 20 -10 0
-31 11 -47 25 -17 14 -35 25 -41 25 -6 0 -11 4 -11 9 0 5 -14 11 -32 15 -17 3
-37 15 -45 26 -8 11 -21 20 -29 20 -8 0 -14 3 -14 8 0 4 -15 13 -32 20 -33 13
-43 18 -102 51 -17 10 -53 30 -81 45 -27 16 -57 34 -65 41 -8 6 -30 18 -47 26
-18 8 -33 17 -33 21 0 5 -5 8 -11 8 -6 0 -17 7 -25 15 -9 8 -24 15 -35 15 -10
0 -19 5 -19 10 0 6 -7 10 -15 10 -8 0 -15 5 -15 10 0 6 -9 10 -19 10 -10 0
-21 7 -25 15 -3 8 -15 15 -26 15 -11 0 -20 5 -20 10 0 6 -9 10 -19 10 -11 0
-23 9 -26 20 -3 11 -15 20 -26 20 -10 0 -19 4 -19 10 0 5 -16 12 -35 16 l-35
6 0 974 c0 972 0 974 20 974 11 0 23 7 26 15 4 8 15 15 25 15 10 0 19 5 19 10
0 6 7 10 15 10 8 0 15 5 15 10 0 6 9 10 19 10 11 0 26 7 35 15 8 8 19 15 25
15 6 0 11 5 11 11 0 6 6 9 13 6 6 -2 25 7 40 19 16 13 36 24 45 24 9 0 37 16
61 35 24 19 52 35 62 35 11 0 19 5 19 10 0 6 5 10 11 10 7 0 19 8 28 19 9 10
30 21 47 25 16 4 36 16 44 26 8 11 22 20 32 20 10 0 18 4 18 10 0 5 16 12 35
16 21 4 37 13 40 25 4 10 15 19 26 19 10 0 19 4 19 9 0 5 15 13 32 17 18 3 40
15 49 25 9 11 21 19 28 19 6 0 11 5 11 10 0 6 9 10 20 10 11 0 20 4 20 9 0 5
8 11 18 15 9 3 26 11 37 18 11 7 31 20 45 29 43 28 181 104 290 161 41 21 81
44 90 51 8 7 29 19 45 27 17 8 46 27 65 42 19 15 48 30 63 34 16 3 34 15 40
25 7 11 20 19 29 19 10 0 18 5 18 10 0 14 12 13 47 -5z"/>
<path d="M2428 3302 c-10 -2 -18 -8 -18 -13 0 -5 -5 -9 -11 -9 -6 0 -17 -7
-25 -15 -9 -8 -24 -15 -35 -15 -10 0 -19 -4 -19 -10 0 -5 -7 -10 -15 -10 -8 0
-15 -4 -15 -10 0 -5 -9 -10 -20 -10 -11 0 -20 -4 -20 -9 0 -5 -11 -12 -25 -15
-14 -4 -25 -11 -25 -16 0 -6 -9 -10 -20 -10 -11 0 -20 -4 -20 -10 0 -5 -5 -10
-11 -10 -28 0 -39 -30 -39 -104 0 -69 -2 -75 -22 -82 -13 -4 -30 -14 -38 -23
-18 -20 -81 -51 -104 -51 -9 0 -16 -4 -16 -10 0 -5 -5 -10 -11 -10 -6 0 -22
-9 -36 -20 -14 -11 -34 -20 -44 -20 -11 0 -19 -4 -19 -10 0 -5 -7 -10 -15 -10
-8 0 -15 -4 -15 -10 0 -5 -7 -10 -16 -10 -8 0 -23 -8 -32 -17 -14 -14 -18 -46
-22 -202 l-5 -185 -35 -10 c-19 -5 -41 -18 -48 -28 -7 -10 -19 -18 -27 -18 -8
0 -21 -10 -29 -22 -13 -18 -16 -55 -16 -194 l0 -172 29 -31 c16 -17 43 -34 60
-37 17 -4 31 -10 31 -15 0 -5 9 -9 19 -9 11 0 22 -9 26 -19 3 -12 19 -21 40
-25 19 -4 35 -11 35 -16 0 -6 8 -10 18 -10 9 0 29 -11 44 -25 31 -29 60 -32
79 -9 29 35 54 34 121 -2 34 -18 71 -37 81 -40 9 -4 17 -10 17 -15 0 -5 9 -9
20 -9 11 0 20 -4 20 -9 0 -5 13 -12 29 -16 16 -3 37 -15 47 -26 9 -10 23 -19
31 -19 7 0 13 -4 13 -10 0 -5 6 -10 13 -10 6 0 34 -11 61 -25 51 -26 96 -33
96 -15 0 6 7 10 15 10 8 0 15 4 15 9 0 5 16 12 35 15 19 4 35 11 35 16 0 6 8
10 18 10 10 0 24 9 32 20 8 11 29 23 47 26 18 3 33 10 33 15 0 5 7 9 15 9 8 0
15 5 15 10 0 6 9 10 20 10 11 0 20 4 20 10 0 5 11 12 25 16 14 3 25 10 25 15
0 5 9 9 20 9 11 0 20 5 20 12 0 6 3 8 7 5 3 -4 13 -2 20 5 10 8 17 8 21 2 4
-6 21 -19 39 -29 23 -14 35 -16 45 -8 24 20 103 60 131 67 15 3 27 11 27 16 0
6 7 10 15 10 8 0 15 5 15 10 0 6 9 10 20 10 11 0 20 4 20 9 0 5 13 12 29 16
28 6 71 46 71 65 0 6 5 10 10 10 6 0 10 66 10 178 0 187 -3 202 -45 202 -11 0
-27 9 -35 20 -8 11 -29 23 -47 26 l-33 6 0 179 c0 99 -4 179 -9 179 -5 0 -12
11 -15 25 -4 16 -13 25 -26 25 -11 0 -20 5 -20 10 0 6 -7 10 -15 10 -8 0 -15
4 -15 9 0 5 -18 12 -40 16 -26 4 -41 13 -45 26 -4 11 -11 17 -16 14 -5 -4 -19
1 -31 9 -12 9 -30 16 -40 16 -10 0 -18 5 -18 10 0 6 -5 10 -11 10 -7 0 -19 8
-28 19 -9 10 -25 20 -36 22 -18 4 -20 14 -23 97 l-3 92 -29 0 c-17 0 -30 5
-30 10 0 6 -5 10 -11 10 -6 0 -17 7 -25 15 -9 8 -24 15 -35 15 -10 0 -19 5
-19 10 0 6 -7 10 -15 10 -8 0 -15 5 -15 10 0 6 -9 10 -20 10 -11 0 -20 4 -20
9 0 5 -11 12 -25 15 -14 4 -25 11 -25 16 0 6 -7 10 -15 10 -8 0 -15 4 -15 9 0
10 -55 18 -82 13z m42 -82 c0 -5 9 -10 20 -10 11 0 23 -7 26 -15 4 -8 14 -15
23 -15 9 0 27 -9 41 -20 14 -11 31 -20 38 -20 6 0 12 -4 12 -10 0 -5 5 -10 11
-10 6 0 17 -7 25 -15 12 -12 13 -15 2 -15 -8 0 -20 -9 -28 -20 -8 -11 -22 -20
-32 -20 -10 0 -18 -4 -18 -10 0 -5 -16 -12 -35 -16 -19 -3 -35 -10 -35 -15 0
-5 -7 -9 -15 -9 -8 0 -15 -4 -15 -10 0 -18 -49 -10 -94 15 -25 14 -52 25 -60
25 -9 0 -16 5 -16 10 0 6 -7 10 -15 10 -8 0 -15 5 -15 10 0 6 -7 10 -16 10
-24 0 -47 27 -32 37 39 24 75 44 91 49 9 4 17 10 17 14 0 4 11 11 25 14 14 4
25 11 25 16 0 6 9 10 20 10 11 0 20 5 20 10 0 6 7 10 15 10 8 0 15 -4 15 -10z
m270 -311 c0 -131 -1 -133 -62 -162 -20 -10 -40 -22 -43 -27 -3 -6 -15 -10
-26 -10 -10 0 -19 -4 -19 -9 0 -11 -62 -41 -84 -41 -15 0 -16 15 -14 126 3
122 4 126 28 140 30 17 82 38 91 36 4 -1 15 8 24 18 10 11 24 20 32 20 7 0 13
4 13 9 0 9 20 17 48 20 9 1 12 -29 12 -120z m-500 91 c8 -11 22 -20 32 -20 10
0 18 -4 18 -10 0 -5 3 -9 8 -8 8 1 31 -7 84 -30 43 -19 42 -16 43 -164 0 -125
-3 -127 -83 -81 -26 14 -67 37 -92 51 -72 39 -70 33 -70 163 0 117 0 119 23
119 12 0 29 -9 37 -20z m-130 -196 c0 -64 13 -94 39 -94 6 0 11 -4 11 -10 0
-5 9 -10 20 -10 11 0 20 -4 20 -10 0 -5 11 -12 25 -16 14 -3 25 -10 25 -15 0
-5 9 -9 20 -9 11 0 20 -4 20 -10 0 -5 7 -10 15 -10 8 0 15 -4 15 -10 0 -5 9
-10 19 -10 11 0 26 -7 35 -15 8 -8 19 -15 25 -15 6 0 11 -3 11 -7 0 -13 54
-35 58 -23 2 5 12 10 22 10 10 0 21 9 25 19 3 12 19 21 40 25 19 4 35 11 35
16 0 6 9 10 20 10 11 0 20 5 20 10 0 6 5 10 11 10 6 0 17 7 25 15 9 8 24 15
35 15 10 0 19 5 19 10 0 6 7 10 15 10 8 0 15 5 15 10 0 6 7 10 16 10 31 0 44
27 44 94 0 52 3 66 15 66 8 0 15 -4 15 -10 0 -5 9 -10 20 -10 11 0 20 -4 20
-10 0 -5 12 -13 28 -16 15 -4 50 -24 77 -45 28 -20 64 -41 80 -45 17 -4 33
-12 37 -18 4 -6 8 -71 8 -143 0 -112 -2 -133 -15 -133 -8 0 -15 3 -15 8 0 12
-52 32 -83 32 -16 0 -41 -8 -55 -19 -15 -10 -38 -22 -52 -26 -13 -4 -29 -13
-36 -19 -34 -32 -55 -45 -83 -51 -17 -4 -31 -11 -31 -16 0 -5 -7 -9 -15 -9 -8
0 -29 -12 -45 -27 l-30 -26 0 -167 c0 -195 5 -230 31 -230 11 0 19 -4 19 -9 0
-5 15 -12 33 -15 18 -3 39 -15 47 -26 8 -11 21 -20 28 -20 20 0 8 -24 -14 -29
-10 -2 -26 -12 -35 -22 -9 -11 -21 -19 -28 -19 -6 0 -11 -4 -11 -10 0 -5 -9
-10 -19 -10 -11 0 -22 -4 -25 -9 -3 -5 -18 -12 -32 -15 -15 -4 -41 -18 -58
-31 -17 -13 -43 -27 -59 -30 -15 -4 -30 -11 -33 -16 -7 -12 -74 -11 -74 1 0 6
-8 10 -17 10 -10 1 -36 12 -58 25 -50 31 -82 45 -101 45 -8 0 -14 5 -14 10 0
6 -7 10 -15 10 -8 0 -15 5 -15 10 0 6 -9 10 -19 10 -11 0 -23 9 -26 20 -3 11
-14 20 -23 20 -9 0 -23 4 -31 9 -12 8 -12 12 2 25 8 9 23 16 31 16 9 0 16 5
16 10 0 6 5 10 11 10 28 0 80 35 94 63 21 43 22 361 1 383 -8 8 -19 14 -25 14
-6 0 -11 5 -11 10 0 6 -9 10 -20 10 -11 0 -20 4 -20 10 0 5 -16 12 -35 16 -19
3 -35 10 -35 15 0 5 -5 9 -11 9 -7 0 -19 8 -28 19 -9 10 -31 22 -49 25 -17 4
-32 12 -32 17 0 5 -9 9 -20 9 -11 0 -20 5 -20 10 0 19 -80 11 -103 -10 -44
-41 -52 -26 -55 109 -2 105 0 127 14 142 10 11 21 19 27 19 19 0 82 35 95 52
7 10 20 18 28 18 8 0 14 4 14 9 0 5 16 12 35 15 19 4 35 11 35 16 0 6 9 10 19
10 11 0 23 5 26 10 16 25 25 5 25 -56z m-170 -414 c14 -11 32 -20 40 -20 8 0
26 -9 40 -20 14 -11 33 -20 43 -20 9 0 17 -4 17 -9 0 -5 11 -12 25 -15 14 -4
25 -12 25 -19 0 -14 -63 -57 -83 -57 -7 0 -17 -4 -22 -9 -6 -5 -31 -21 -57
-35 -34 -19 -55 -24 -77 -20 -17 4 -31 10 -31 15 0 5 -7 9 -15 9 -8 0 -15 5
-15 10 0 6 -6 10 -14 10 -7 0 -19 7 -26 15 -7 8 -20 15 -30 15 -19 0 -60 32
-60 47 0 9 91 60 98 55 1 -2 10 4 18 13 9 8 22 15 30 15 8 0 14 5 14 10 0 6 9
10 20 10 11 0 20 5 20 10 0 15 12 12 40 -10z m1080 12 c0 -12 54 -40 68 -35 6
3 12 0 12 -6 0 -6 7 -11 15 -11 8 0 15 -4 15 -10 0 -5 9 -10 20 -10 11 0 20
-4 20 -9 0 -5 11 -12 25 -15 40 -10 29 -31 -32 -63 -32 -16 -81 -42 -109 -58
-51 -28 -51 -28 -85 -10 -19 10 -55 29 -81 42 -27 14 -50 29 -54 34 -3 5 -10
7 -15 4 -5 -4 -9 -1 -9 4 0 6 -9 11 -20 11 -34 0 -22 27 15 34 19 4 35 11 35
16 0 6 9 10 19 10 11 0 22 9 26 19 3 11 12 18 20 15 7 -3 16 0 20 5 3 6 11 9
16 6 5 -4 9 -1 9 4 0 6 9 11 20 11 11 0 20 5 20 10 0 6 7 10 15 10 8 0 15 -4
15 -8z m-1313 -218 c26 -15 59 -34 73 -43 14 -9 37 -23 52 -30 35 -18 38 -33
31 -162 -5 -100 -12 -124 -27 -100 -3 5 -18 12 -32 15 -15 4 -43 20 -63 36
-20 16 -51 32 -69 36 l-32 7 0 133 c0 79 4 134 10 134 5 0 31 -12 57 -26z
m473 -108 l0 -134 -32 -8 c-18 -3 -40 -15 -49 -25 -9 -11 -21 -19 -28 -19 -6
0 -11 -4 -11 -9 0 -5 -16 -12 -35 -15 -19 -4 -35 -11 -35 -16 0 -6 -9 -10 -20
-10 -19 0 -20 7 -20 130 0 123 1 130 20 130 11 0 20 5 20 10 0 6 7 10 15 10 8
0 15 5 15 10 0 6 9 10 20 10 11 0 20 4 20 10 0 5 11 12 25 16 14 3 25 10 25
15 0 5 9 9 20 9 11 0 20 5 20 10 0 6 7 10 15 10 13 0 15 -22 15 -134z m590
124 c0 -5 9 -10 19 -10 10 0 21 -7 25 -15 3 -8 15 -15 26 -15 11 0 20 -4 20
-10 0 -5 7 -10 15 -10 8 0 15 -4 15 -10 0 -5 7 -10 15 -10 8 0 24 -8 35 -17
18 -16 20 -30 20 -135 0 -64 -4 -119 -9 -122 -5 -3 -22 1 -37 9 -16 8 -35 15
-41 15 -7 0 -13 5 -13 10 0 6 -9 10 -19 10 -11 0 -22 9 -26 19 -3 12 -19 21
-40 25 l-35 7 0 134 c0 113 2 135 15 135 8 0 15 -4 15 -10z m500 -125 l0 -134
-35 -7 c-19 -3 -35 -10 -35 -15 0 -5 -7 -9 -15 -9 -8 0 -15 -4 -15 -10 0 -5
-9 -10 -20 -10 -11 0 -20 -4 -20 -10 0 -5 -11 -12 -25 -16 -14 -3 -25 -10 -25
-15 0 -5 -9 -9 -20 -9 -19 0 -20 7 -20 130 0 123 1 130 20 130 11 0 20 5 20
10 0 6 5 10 11 10 7 0 19 8 28 19 9 10 31 22 49 25 17 4 32 12 32 17 0 5 9 9
20 9 11 0 20 5 20 10 0 6 7 10 15 10 13 0 15 -22 15 -135z"/>
</g>
</svg>
